HIERARCHY
ROOT Root
{
  OFFSET 0.0 0.0 0.0
  CHANNELS 6 Xposition Yposition Zposition Zrotation Yrotation Xrotation
  JOINT Hips
  {
    OFFSET 0.0 100.0 0.0
    CHANNELS 6 Xposition Yposition Zposition Zrotation Yrotation Xrotation
    JOINT Spine1
    {
      OFFSET 5.003913 -0.037094 -0.013727
      CHANNELS 3 Zrotation Yrotation Xrotation
      JOINT Spine2
      {
        OFFSET 7.125363 -1e-06 0.0
        CHANNELS 3 Zrotation Yrotation Xrotation
        JOINT Chest
        {
          OFFSET 7.594027 1e-06 0.0
          CHANNELS 3 Zrotation Yrotation Xrotation
          JOINT Neck1
          {
            OFFSET 26.313086 -0.460272 -0.181672
            CHANNELS 3 Zrotation Yrotation Xrotation
            JOINT Neck2
            {
              OFFSET 8.045911 0.0 0.0
              CHANNELS 3 Zrotation Yrotation Xrotation
              JOINT Head
              {
                OFFSET 6.432774 0.0 0.0
                CHANNELS 3 Zrotation Yrotation Xrotation
                JOINT HeadEnd
                {
                  OFFSET 16.169773 0.06451 0.00362
                  CHANNELS 3 Zrotation Yrotation Xrotation
                }
                JOINT Jaw
                {
                  OFFSET 0.108741 3.12938 0.002639
                  CHANNELS 3 Zrotation Yrotation Xrotation
                }
                JOINT LeftEye
                {
                  OFFSET 4.45173 8.166359 3.206392
                  CHANNELS 3 Zrotation Yrotation Xrotation
                }
                JOINT RightEye
                {
                  OFFSET 4.436895 8.135758 -3.222429
                  CHANNELS 3 Zrotation Yrotation Xrotation
                }
              }
            }
          }
          JOINT LeftShoulder
          {
            OFFSET 23.218927 5.195579 1.621656
            CHANNELS 3 Zrotation Yrotation Xrotation
            JOINT LeftArm
            {
              OFFSET 15.902118 2e-06 -2e-06
              CHANNELS 3 Zrotation Yrotation Xrotation
              JOINT LeftForeArm
              {
                OFFSET 28.739307 0.0 -1e-06
                CHANNELS 3 Zrotation Yrotation Xrotation
                JOINT LeftHand
                {
                  OFFSET 27.093981 -4e-06 0.0
                  CHANNELS 3 Zrotation Yrotation Xrotation
                  JOINT LeftHandThumb1
                  {
                    OFFSET 2.276781 3.380274 0.83384
                    CHANNELS 3 Zrotation Yrotation Xrotation
                    JOINT LeftHandThumb2
                    {
                      OFFSET 4.705309 -1e-06 -1e-06
                      CHANNELS 3 Zrotation Yrotation Xrotation
                      JOINT LeftHandThumb3
                      {
                        OFFSET 2.798515 0.0 3e-06
                        CHANNELS 3 Zrotation Yrotation Xrotation
                        JOINT LeftHandThumbEnd
                        {
                          OFFSET 3.180793 4e-06 -4e-06
                          CHANNELS 3 Zrotation Yrotation Xrotation
                        }
                      }
                    }
                  }
                  JOINT LeftHandIndex1
                  {
                    OFFSET 3.247786 2.352677 0.137192
                    CHANNELS 3 Zrotation Yrotation Xrotation
                    JOINT LeftHandIndex2
                    {
                      OFFSET 6.367095 1e-06 0.0
                      CHANNELS 3 Zrotation Yrotation Xrotation
                      JOINT LeftHandIndex3
                      {
                        OFFSET 3.662364 0.0 0.0
                        CHANNELS 3 Zrotation Yrotation Xrotation
                        JOINT LeftHandIndex4
                        {
                          OFFSET 2.329242 4e-06 -4e-06
                          CHANNELS 3 Zrotation Yrotation Xrotation
                          JOINT LeftHandIndexEnd
                          {
                            OFFSET 2.767823 1e-06 0.0
                            CHANNELS 3 Zrotation Yrotation Xrotation
                          }
                        }
                      }
                    }
                  }
                  JOINT LeftHandMiddle1
                  {
                    OFFSET 3.163612 0.945023 -0.406112
                    CHANNELS 3 Zrotation Yrotation Xrotation
                    JOINT LeftHandMiddle2
                    {
                      OFFSET 6.276789 3e-06 0.0
                      CHANNELS 3 Zrotation Yrotation Xrotation
                      JOINT LeftHandMiddle3
                      {
                        OFFSET 4.35652 -1e-06 4e-06
                        CHANNELS 3 Zrotation Yrotation Xrotation
                        JOINT LeftHandMiddle4
                        {
                          OFFSET 2.996877 0.0 8e-06
                          CHANNELS 3 Zrotation Yrotation Xrotation
                          JOINT LeftHandMiddleEnd
                          {
                            OFFSET 2.323256 3e-06 -4e-06
                            CHANNELS 3 Zrotation Yrotation Xrotation
                          }
                        }
                      }
                    }
                  }
                  JOINT LeftHandRing1
                  {
                    OFFSET 2.882606 -0.309162 0.107445
                    CHANNELS 3 Zrotation Yrotation Xrotation
                    JOINT LeftHandRing2
                    {
                      OFFSET 6.033198 0.0 4e-06
                      CHANNELS 3 Zrotation Yrotation Xrotation
                      JOINT LeftHandRing3
                      {
                        OFFSET 4.350578 3e-06 0.0
                        CHANNELS 3 Zrotation Yrotation Xrotation
                        JOINT LeftHandRing4
                        {
                          OFFSET 2.651321 2e-06 -7e-06
                          CHANNELS 3 Zrotation Yrotation Xrotation
                          JOINT LeftHandRingEnd
                          {
                            OFFSET 1.937663 1e-06 -4e-06
                            CHANNELS 3 Zrotation Yrotation Xrotation
                          }
                        }
                      }
                    }
                  }
                  JOINT LeftHandPinky1
                  {
                    OFFSET 2.865315 -1.525436 0.575687
                    CHANNELS 3 Zrotation Yrotation Xrotation
                    JOINT LeftHandPinky2
                    {
                      OFFSET 5.54936 1e-06 -8e-06
                      CHANNELS 3 Zrotation Yrotation Xrotation
                      JOINT LeftHandPinky3
                      {
                        OFFSET 3.070974 0.0 -4e-06
                        CHANNELS 3 Zrotation Yrotation Xrotation
                        JOINT LeftHandPinky4
                        {
                          OFFSET 1.549672 1e-06 0.0
                          CHANNELS 3 Zrotation Yrotation Xrotation
                          JOINT LeftHandPinkyEnd
                          {
                            OFFSET 1.952123 0.0 0.0
                            CHANNELS 3 Zrotation Yrotation Xrotation
                          }
                        }
                      }
                    }
                  }
                }
              }
            }
          }
          JOINT RightShoulder
          {
            OFFSET 23.161716 5.296122 -1.380114
            CHANNELS 3 Zrotation Yrotation Xrotation
            JOINT RightArm
            {
              OFFSET -16.027195 -2e-06 1.1e-05
              CHANNELS 3 Zrotation Yrotation Xrotation
              JOINT RightForeArm
              {
                OFFSET -28.736639 4e-06 2e-06
                CHANNELS 3 Zrotation Yrotation Xrotation
                JOINT RightHand
                {
                  OFFSET -27.133619 6e-06 0.0
                  CHANNELS 3 Zrotation Yrotation Xrotation
                  JOINT RightHandThumb1
                  {
                    OFFSET -2.274328 -3.351035 -0.83067
                    CHANNELS 3 Zrotation Yrotation Xrotation
                    JOINT RightHandThumb2
                    {
                      OFFSET -4.703594 -3e-06 2e-06
                      CHANNELS 3 Zrotation Yrotation Xrotation
                      JOINT RightHandThumb3
                      {
                        OFFSET -2.794935 -4e-06 -3e-06
                        CHANNELS 3 Zrotation Yrotation Xrotation
                        JOINT RightHandThumbEnd
                        {
                          OFFSET -3.183852 4e-06 1e-06
                          CHANNELS 3 Zrotation Yrotation Xrotation
                        }
                      }
                    }
                  }
                  JOINT RightHandIndex1
                  {
                    OFFSET -3.253496 -2.33755 -0.127667
                    CHANNELS 3 Zrotation Yrotation Xrotation
                    JOINT RightHandIndex2
                    {
                      OFFSET -6.344434 0.0 0.0
                      CHANNELS 3 Zrotation Yrotation Xrotation
                      JOINT RightHandIndex3
                      {
                        OFFSET -3.654871 0.0 -8e-06
                        CHANNELS 3 Zrotation Yrotation Xrotation
                        JOINT RightHandIndex4
                        {
                          OFFSET -2.327586 -1e-06 0.0
                          CHANNELS 3 Zrotation Yrotation Xrotation
                          JOINT RightHandIndexEnd
                          {
                            OFFSET -2.770001 3e-06 8e-06
                            CHANNELS 3 Zrotation Yrotation Xrotation
                          }
                        }
                      }
                    }
                  }
                  JOINT RightHandMiddle1
                  {
                    OFFSET -3.168223 -0.944764 0.411762
                    CHANNELS 3 Zrotation Yrotation Xrotation
                    JOINT RightHandMiddle2
                    {
                      OFFSET -6.266691 -1e-06 -4e-06
                      CHANNELS 3 Zrotation Yrotation Xrotation
                      JOINT RightHandMiddle3
                      {
                        OFFSET -4.348901 0.0 0.0
                        CHANNELS 3 Zrotation Yrotation Xrotation
                        JOINT RightHandMiddle4
                        {
                          OFFSET -3.00024 2e-06 -4e-06
                          CHANNELS 3 Zrotation Yrotation Xrotation
                          JOINT RightHandMiddleEnd
                          {
                            OFFSET -2.321477 -4e-06 -4e-06
                            CHANNELS 3 Zrotation Yrotation Xrotation
                          }
                        }
                      }
                    }
                  }
                  JOINT RightHandRing1
                  {
                    OFFSET -2.885654 0.293261 -0.119232
                    CHANNELS 3 Zrotation Yrotation Xrotation
                    JOINT RightHandRing2
                    {
                      OFFSET -6.032835 -1e-06 -4e-06
                      CHANNELS 3 Zrotation Yrotation Xrotation
                      JOINT RightHandRing3
                      {
                        OFFSET -4.33881 0.0 -4e-06
                        CHANNELS 3 Zrotation Yrotation Xrotation
                        JOINT RightHandRing4
                        {
                          OFFSET -2.654903 -4e-06 -4e-06
                          CHANNELS 3 Zrotation Yrotation Xrotation
                          JOINT RightHandRingEnd
                          {
                            OFFSET -1.935122 0.0 4e-06
                            CHANNELS 3 Zrotation Yrotation Xrotation
                          }
                        }
                      }
                    }
                  }
                  JOINT RightHandPinky1
                  {
                    OFFSET -2.866241 1.503904 -0.60527
                    CHANNELS 3 Zrotation Yrotation Xrotation
                    JOINT RightHandPinky2
                    {
                      OFFSET -5.553177 -2e-06 0.0
                      CHANNELS 3 Zrotation Yrotation Xrotation
                      JOINT RightHandPinky3
                      {
                        OFFSET -3.062664 -1e-06 -4e-06
                        CHANNELS 3 Zrotation Yrotation Xrotation
                        JOINT RightHandPinky4
                        {
                          OFFSET -1.546529 2e-06 4e-06
                          CHANNELS 3 Zrotation Yrotation Xrotation
                          JOINT RightHandPinkyEnd
                          {
                            OFFSET -1.952341 0.0 -4e-06
                            CHANNELS 3 Zrotation Yrotation Xrotation
                          }
                        }
                      }
                    }
                  }
                }
              }
            }
          }
        }
      }
    }
    JOINT LeftLeg
    {
      OFFSET -8.443107 2.567604 10.043214
      CHANNELS 3 Zrotation Yrotation Xrotation
      JOINT LeftShin
      {
        OFFSET 43.229198 1e-06 -1e-06
        CHANNELS 3 Zrotation Yrotation Xrotation
        JOINT LeftFoot
        {
          OFFSET 42.298611 1e-06 1e-06
          CHANNELS 3 Zrotation Yrotation Xrotation
          JOINT LeftToeBase
          {
            OFFSET 14.165858 1e-06 0.0
            CHANNELS 3 Zrotation Yrotation Xrotation
            JOINT LeftToeEnd
            {
              OFFSET 6.7141 -0.234461 0.0
              CHANNELS 3 Zrotation Yrotation Xrotation
            }
          }
        }
      }
    }
    JOINT RightLeg
    {
      OFFSET -8.303923 2.592729 -10.047278
      CHANNELS 3 Zrotation Yrotation Xrotation
      JOINT RightShin
      {
        OFFSET -43.369682 0.0 1e-06
        CHANNELS 3 Zrotation Yrotation Xrotation
        JOINT RightFoot
        {
          OFFSET -42.260784 4e-06 2e-06
          CHANNELS 3 Zrotation Yrotation Xrotation
          JOINT RightToeBase
          {
            OFFSET -14.222245 -2e-06 -1e-06
            CHANNELS 3 Zrotation Yrotation Xrotation
            JOINT RightToeEnd
            {
              OFFSET -6.660062 0.232574 -2e-06
              CHANNELS 3 Zrotation Yrotation Xrotation
            }
          }
        }
      }
    }
  }
}
MOTION
Frames: 4
Frame Time: 0.03333333333333333
0.0 0.0 0.0 0.0 -0.0 0.0 -0.43798 100.22451 1.195508 90.507561 2.023615 94.778885 -6.070488 -0.103378 -0.396547 -13.07021 -0.756442 -0.197268 15.794471 1.424417 -3.377873 4.239998 1.081312 2.530546 -2.971963 -0.621114 1.910541 -11.735551 -1.862712 1.163532 5e-06 -0.0 -0.0 -0.135171 0.032567 0.069982 0.013812 0.213534 0.199207 0.056148 -0.158706 -0.053057 28.525064 -67.430305 -22.547297 45.555752 11.125765 -31.089767 27.081604 -2.052626 -1.151338 -6.708091 11.865507 -77.891586 17.636631 -26.322729 52.411194 -19.46666 -14.395598 29.410389 0.0 -8.774821 -2e-06 14.80093 -15.352863 6.234298 -0.60978 -1.795655 -3.889328 -4.807086 -11.046811 -2.93785 4e-06 -20.976019 -2e-06 -5.019969 -25.03356 -4.031882 5e-06 -0.0 -0.0 -10.634535 -5.686971 -3.565587 10.573275 -17.922951 -3.1139 2e-06 -13.821206 -1e-06 -0.501779 -31.181505 -4.027016 -9.782688 -58.166637 6.318869 -13.982714 -7.150198 -2.875042 13.772729 -8.401491 -3.218241 0.347733 -34.211555 0.771652 -0.96303 -17.73337 2.621019 0.0 -0.0 -2e-06 -17.346416 -20.095217 -4.201783 21.757557 -1.638374 3.866428 3e-06 -6.338821 0.0 -1.697588 -22.591743 -6.194006 -0.0 -3e-06 -3e-06 -139.016296 -67.241463 -38.064548 44.26223 4.142988 -39.269253 32.242733 0.435978 -0.642574 1.146393 33.881599 -25.582569 22.182119 -20.375898 49.933319 -16.701811 -16.743528 28.476528 -4e-06 -12.690601 -1e-06 16.733257 -16.162029 1.873704 -0.10592 -1.513857 -4.275882 -5.039039 -5.61287 -2.953555 5e-06 -11.02052 -2e-06 -6.111295 -15.895328 -3.840473 -0.0 -0.0 -0.0 -10.283372 -5.680288 -4.341837 11.028294 -11.302402 -2.372632 -1.384266 -14.238578 -6.320122 -0.625436 -26.924183 -3.827599 -4.751164 -48.782471 -3.375132 -13.708526 -7.363475 -3.72094 18.141151 -14.052739 -3.242674 8e-06 -18.78727 0.0 -0.42971 -8.456047 2.555508 2e-06 -0.0 -1e-06 -15.923536 -20.094481 -5.473588 30.41921 -7.190828 1.735929 3e-06 -8.162925 -2e-06 -1.861905 -22.861465 -6.167939 -1e-06 -3e-06 -0.0 -179.22905 -7.381062 -3.563782 7.293488 -0.039932 0.090335 -74.024223 8.484946 -5.121519 -5.776193 1.644439 2.157543 -0.999999 -0.0 0.0 0.806778 -5.709066 -12.696276 9.813991 0.033592 -0.030128 -76.509377 -1.408883 -4.980639 -5.475549 0.530813 1.6313 -1.000002 0.0 -0.0 
0.0 0.0 0.0 0.0 -0.0 0.0 -0.355995 100.28727 1.135087 90.525589 1.753729 94.595604 -5.90392 -0.123834 -0.204257 -12.960455 -0.672936 -0.207303 15.473314 1.35102 -3.461681 4.728244 1.165919 2.583517 -2.84189 -0.648011 1.969227 -13.63482 -1.549166 1.521072 5e-06 -0.0 -0.0 -0.10626 0.03453 0.076588 0.003244 0.208375 0.1886 0.061616 -0.151009 -0.029628 28.694885 -70.974335 -22.276691 43.140598 13.849708 -27.739302 36.802017 -2.918009 -1.60311 -2.993925 16.788349 -56.751324 17.636633 -26.322718 52.411179 -19.466658 -14.395596 29.410381 0.0 -8.774819 -3e-06 13.851496 -14.700811 6.540213 -0.609776 -1.795653 -3.889324 -4.807089 -11.046811 -2.937851 3e-06 -20.976013 -2e-06 -5.019969 -25.033552 -4.031882 6e-06 0.0 1e-06 -10.634535 -5.686971 -3.565585 10.573275 -17.922947 -3.113899 4e-06 -13.821206 -1e-06 -0.50178 -31.181488 -4.027016 -9.468923 -56.292458 6.863235 -13.982712 -7.150196 -2.875042 13.772728 -8.401489 -3.218237 0.34773 -34.211544 0.771654 -0.963033 -17.73337 2.621021 -0.0 -0.0 -2e-06 -17.346424 -20.095217 -4.201779 21.757557 -1.638374 3.866426 1e-06 -6.338822 1e-06 -1.697589 -22.591738 -6.194006 -2e-06 -3e-06 -3e-06 -136.687225 -71.088547 -38.741539 40.694019 7.248317 -34.20105 47.818073 -0.103721 -1.233464 8.301118 36.037502 -3.4668 22.182116 -20.375893 49.933319 -16.701817 -16.74353 28.476538 -1e-06 -12.690601 -1e-06 17.672144 -15.801186 1.168855 -0.10592 -1.513856 -4.275881 -5.039042 -5.612869 -2.953556 5e-06 -11.020526 -2e-06 -6.111299 -15.89533 -3.840471 1e-06 -0.0 1e-06 -10.283369 -5.680288 -4.341839 11.028296 -11.302404 -2.372633 -1.384268 -14.238583 -6.320117 -0.625438 -26.924187 -3.827601 -5.102564 -49.329304 -3.328941 -13.708525 -7.363477 -3.720941 18.141148 -14.052739 -3.242673 7e-06 -18.78727 -3e-06 -0.429712 -8.456046 2.555505 0.0 -1e-06 0.0 -15.923536 -20.094482 -5.473582 30.41921 -7.190823 1.735924 1e-06 -8.162926 -1e-06 -1.8619 -22.861467 -6.167941 -1e-06 -2e-06 -1e-06 -179.465164 -7.218305 -3.094292 7.229349 -0.008246 0.060532 -73.826927 7.768467 -5.054311 -5.872157 1.713549 2.154801 -0.999998 0.0 0.0 0.803551 -5.710923 -12.334419 9.121479 0.023852 0.015888 -76.074135 -1.826459 -5.098413 -5.403279 0.516017 1.635715 -1.000002 1e-06 -0.0 
0.0 0.0 0.0 0.0 -0.0 0.0 -0.283873 100.295166 1.144821 90.47184 1.435779 94.388535 -5.745824 -0.131629 -0.092034 -12.89631 -0.637197 -0.30046 15.239037 1.360585 -3.455686 5.557349 0.997662 2.485422 -2.716416 -0.560588 2.288383 -15.66281 -1.357309 1.986385 6e-06 0.0 0.0 -0.067391 0.042352 0.082716 0.007279 0.218777 0.177486 0.065053 -0.146321 -0.006316 28.392773 -75.861458 -21.149435 40.47081 18.143 -23.331572 50.904911 -2.93403 -1.301509 3.595442 22.238665 -32.756626 17.636631 -26.322729 52.411186 -19.46666 -14.395596 29.410385 -1e-06 -8.774824 -3e-06 13.86624 -14.892623 6.41612 -0.609778 -1.795655 -3.889327 -4.807088 -11.046812 -2.93785 3e-06 -20.976019 1e-06 -5.019975 -25.03356 -4.03188 5e-06 0.0 0.0 -10.634535 -5.686974 -3.565585 10.573277 -17.922949 -3.113902 -1e-06 -13.821211 3e-06 -0.501778 -31.181505 -4.027015 -9.497152 -55.404972 7.206776 -13.982718 -7.150198 -2.875041 13.772731 -8.401491 -3.218242 0.347732 -34.211555 0.771655 -0.96303 -17.73337 2.62102 -0.0 -0.0 -0.0 -17.346422 -20.095219 -4.201782 21.757563 -1.638374 3.866429 -2e-06 -6.338823 1e-06 -1.697592 -22.591747 -6.194006 -1e-06 -3e-06 -4e-06 -133.830719 -75.255684 -39.744495 37.656391 11.105915 -30.355246 64.241318 -0.022568 -1.912585 15.117586 34.912144 15.308315 22.182117 -20.375898 49.933327 -16.701815 -16.743528 28.476532 -3e-06 -12.690601 -0.0 17.512758 -15.194953 1.054054 -0.105921 -1.513855 -4.275881 -5.039041 -5.612873 -2.953557 5e-06 -11.020523 -1e-06 -6.111301 -15.895334 -3.840471 1e-06 -1e-06 0.0 -10.28337 -5.680288 -4.341837 11.028294 -11.302405 -2.372634 -1.384268 -14.238583 -6.320122 -0.62544 -26.924194 -3.827601 -5.057078 -49.194221 -3.355221 -13.708527 -7.363476 -3.720938 18.14115 -14.052741 -3.242677 4e-06 -18.78727 -1e-06 -0.42971 -8.456043 2.555504 -1e-06 0.0 0.0 -15.923536 -20.094482 -5.473584 30.419222 -7.190827 1.735924 4e-06 -8.162929 -2e-06 -1.861901 -22.861473 -6.167947 -1e-06 -3e-06 -1e-06 -179.829178 -7.170272 -2.825278 7.33194 0.009646 0.058643 -73.961548 7.295934 -5.067076 -5.862778 1.760037 2.155264 -1.0 0.0 -0.0 0.368081 -5.732296 -11.966576 9.215575 0.03191 0.065878 -76.047829 -2.04776 -5.327022 -5.369024 0.551577 1.653327 -1.000003 0.0 -0.0 
0.0 0.0 0.0 0.0 -0.0 0.0 -0.223153 100.290359 1.182033 90.384514 1.110518 94.225449 -5.674521 -0.158284 -0.098412 -12.869287 -0.667888 -0.433873 15.140363 1.427881 -3.403518 6.492106 0.835966 2.490243 -2.626766 -0.475805 2.678022 -17.301943 -1.324928 2.488741 6e-06 -0.0 -0.0 -0.03779 0.049478 0.068991 0.023738 0.237344 0.150263 0.080889 -0.15095 -0.007026 26.300182 -80.670074 -17.813501 37.892815 22.194534 -21.484484 66.677841 -2.6404 -0.497885 12.406677 25.483274 -4.70062 17.636631 -26.322725 52.41119 -19.466658 -14.3956 29.410385 -2e-06 -8.774821 -3e-06 14.423861 -14.618369 5.808764 -0.609775 -1.795654 -3.889325 -4.807087 -11.046808 -2.937851 3e-06 -20.976015 0.0 -5.019971 -25.033552 -4.031881 7e-06 -0.0 1e-06 -10.634535 -5.686972 -3.565587 10.573277 -17.922949 -3.113901 3e-06 -13.821206 0.0 -0.501779 -31.181501 -4.027018 -9.411542 -55.345173 6.871559 -13.982716 -7.150197 -2.875041 13.772733 -8.401491 -3.218242 0.347729 -34.211544 0.771658 -0.963033 -17.733366 2.621022 0.0 -2e-06 0.0 -17.346416 -20.095217 -4.201784 21.757557 -1.638374 3.866429 1e-06 -6.338824 1e-06 -1.697587 -22.591742 -6.194007 -6e-06 -4e-06 -3e-06 -131.334457 -79.168907 -40.693306 35.782246 14.052078 -27.692019 79.526283 0.613541 -2.417053 18.938694 32.272335 30.768887 22.182112 -20.375898 49.933323 -16.701807 -16.743528 28.476524 1e-06 -12.690597 -4e-06 16.555387 -14.770479 1.246209 -0.105919 -1.513856 -4.27588 -5.039039 -5.61287 -2.953556 5e-06 -11.020523 -4e-06 -6.111299 -15.895329 -3.84047 -1e-06 -2e-06 -1e-06 -10.283371 -5.680286 -4.341839 11.028292 -11.302402 -2.372631 -1.384269 -14.238577 -6.320121 -0.625436 -26.924181 -3.8276 -4.882708 -48.279911 -3.385834 -13.708522 -7.363474 -3.72094 18.141146 -14.052735 -3.24267 6e-06 -18.787264 -1e-06 -0.429711 -8.456042 2.555506 1e-06 0.0 -1e-06 -15.923534 -20.094475 -5.473584 30.419205 -7.190826 1.735927 2e-06 -8.162922 1e-06 -1.861903 -22.861467 -6.167942 -1e-06 -3e-06 -0.0 179.793777 -7.192628 -2.711974 7.454849 0.003334 0.101881 -74.167458 7.037806 -5.135955 -5.883838 1.764974 2.156695 -0.999999 -0.0 -0.0 -0.106693 -5.721083 -11.654839 9.393458 0.05123 0.067207 -76.094193 -2.098432 -5.638357 -5.429057 0.599909 1.668897 -1.000002 0.0 0.0 
